<?xml version="1.0" standalone="no"?>
<!DOCTYPE svg PUBLIC "-//W3C//DTD SVG 20010904//EN"
 "http://www.w3.org/TR/2001/REC-SVG-20010904/DTD/svg10.dtd">
<svg version="1.0" xmlns="http://www.w3.org/2000/svg"
 width="600.000000pt" height="327.000000pt" viewBox="0 0 600.000000 327.000000"
 preserveAspectRatio="xMidYMid meet">

<g transform="translate(0.000000,327.000000) scale(0.100000,-0.100000)"
fill="#000000" stroke="none">
<path d="M2956 2760 l-29 -18 44 0 c74 0 212 -64 335 -155 80 -59 275 -124
547 -182 l77 -17 0 -79 0 -79 30 0 30 0 0 68 c0 37 -3 84 -6 104 -6 36 -8 37
-63 48 -311 61 -655 179 -849 293 -71 42 -76 43 -116 17z"/>
<path d="M2940 2701 c-8 -6 -28 -11 -43 -11 -43 0 -87 -51 -87 -100 0 -22 5
-42 10 -45 19 -12 10 -35 -13 -35 -38 0 -67 -27 -67 -64 0 -25 -23 -71 -86
-172 -128 -207 -133 -214 -149 -214 -23 0 -38 -39 -31 -81 6 -39 6 -39 -28
-39 -18 0 -45 -9 -59 -20 -26 -21 -53 -82 -43 -99 3 -5 8 -26 11 -46 7 -55 40
-99 125 -164 92 -69 187 -123 258 -146 51 -17 55 -17 122 4 46 15 73 30 84 46
17 27 22 100 6 110 -18 11 2 35 31 35 33 0 59 31 59 71 0 30 24 57 35 39 3 -5
19 -10 34 -10 15 0 36 -9 46 -20 9 -10 38 -26 64 -35 77 -26 111 -51 111 -83
0 -37 28 -62 70 -62 40 0 60 -16 282 -221 186 -173 307 -273 358 -298 19 -9
51 -27 70 -39 44 -28 113 -29 156 -3 35 22 64 75 64 120 0 41 -32 104 -64 125
-14 9 -45 36 -68 59 -55 54 -204 160 -385 271 -79 49 -143 94 -143 100 0 7 15
27 34 45 l34 33 17 -47 18 -46 33 58 33 58 1 -91 c0 -72 3 -93 15 -98 13 -5
15 13 15 124 l0 129 36 66 36 66 22 -19 c32 -29 54 -33 91 -18 37 16 55 42 55
80 0 35 -13 33 -60 -10 l-41 -37 -22 22 c-13 11 -28 21 -34 21 -6 0 -14 6 -17
13 -3 6 -4 0 -2 -15 3 -26 1 -28 -31 -28 l-34 0 3 88 3 87 158 3 157 3 0 -45
c0 -59 18 -76 81 -76 l49 0 0 -262 c0 -145 -4 -268 -8 -275 -5 -9 -52 -13
-152 -15 -144 -3 -145 -3 -113 -20 25 -14 56 -18 145 -18 172 0 158 -29 158
324 l0 293 -69 66 -69 67 -164 0 c-213 0 -208 3 -208 -126 0 -86 -2 -95 -17
-90 -10 2 -62 8 -116 12 l-99 7 26 -41 c24 -38 25 -42 8 -51 -9 -5 -37 -29
-60 -53 -42 -42 -47 -44 -97 -43 -61 2 -98 24 -140 85 -15 22 -39 43 -51 46
-13 4 -24 13 -24 21 0 7 -11 25 -25 39 -24 24 -24 26 -10 55 9 16 27 34 40 39
35 13 49 45 36 82 -6 17 -11 32 -11 33 0 1 19 5 42 8 54 7 92 44 91 89 -3 107
-10 124 -81 191 -130 121 -361 232 -412 198z m175 -86 c91 -45 221 -140 250
-182 23 -33 16 -29 -39 22 -46 41 -76 59 -61 35 3 -5 -40 19 -97 54 -57 34
-128 77 -158 95 -53 31 -53 32 -20 27 19 -3 76 -26 125 -51z m-99 -22 c47 -26
149 -91 227 -143 120 -81 142 -99 145 -123 4 -33 -13 -57 -39 -57 -10 0 -53
24 -94 54 -68 49 -230 149 -357 220 -55 31 -64 64 -25 91 28 20 40 17 143 -42z
m-41 -134 c88 -50 119 -73 114 -86 -5 -14 -219 109 -219 126 0 17 16 11 105
-40z m-76 -30 c98 -54 318 -198 354 -233 28 -26 32 -46 9 -54 -7 -2 -12 6 -12
21 0 18 -15 34 -60 66 -43 31 -60 38 -60 27 0 -12 -23 -2 -82 36 -82 51 -244
145 -262 151 -15 5 3 27 21 27 9 0 50 -19 92 -41z m34 -112 c37 -23 65 -47 63
-54 -3 -6 13 -29 34 -50 42 -40 54 -74 51 -138 -2 -40 -24 -75 -46 -75 -7 0
-18 -7 -25 -15 -15 -18 -51 -20 -68 -3 -9 9 -12 6 -12 -15 0 -18 -5 -27 -15
-27 -17 0 -20 7 -30 62 -5 30 -13 40 -43 55 -27 13 -38 25 -40 46 -2 15 -8 27
-13 27 -5 0 -18 9 -30 21 -18 18 -23 19 -35 7 -12 -12 -13 -24 -1 -80 13 -62
13 -68 -6 -98 -11 -17 -22 -29 -24 -26 -3 2 3 16 13 30 15 24 15 33 4 86 -15
72 -35 81 -27 13 6 -45 5 -46 -5 -15 -6 17 -18 32 -26 32 -11 0 -12 -3 -2 -14
9 -12 7 -21 -11 -45 -28 -38 -31 -38 -23 -5 6 25 5 26 -20 20 -26 -6 -26 -5
-15 16 12 23 129 217 176 291 l23 37 43 -21 c23 -12 72 -40 110 -62z m347 -67
c0 -5 -4 -10 -9 -10 -6 0 -13 5 -16 10 -3 6 1 10 9 10 9 0 16 -4 16 -10z
m-118 -122 c-3 -29 -9 -38 -23 -38 -10 0 -19 5 -19 10 0 10 42 72 45 67 1 -1
0 -19 -3 -39z m1108 -56 c-38 -6 -50 5 -50 45 l1 38 35 -40 c34 -38 34 -40 14
-43z m-1050 50 c0 -7 -204 -339 -216 -351 -2 -2 -7 -1 -10 2 -4 4 23 54 60
112 36 57 66 107 66 109 0 3 -8 7 -17 9 -11 3 -7 5 10 6 31 1 34 8 10 28 -17
13 -16 14 5 10 18 -4 27 3 48 39 23 40 44 57 44 36z m-454 -45 c1 -15 5 -36 9
-47 6 -20 -32 -100 -48 -100 -5 0 1 15 12 34 24 39 26 70 7 108 -14 26 -11 41
7 35 6 -2 11 -15 13 -30z m71 -64 c4 -10 11 -21 15 -24 5 -3 -5 -27 -22 -53
-37 -54 -51 -62 -21 -10 21 36 27 64 14 64 -5 0 -18 -19 -31 -41 -34 -59 -37
-42 -4 24 29 60 39 68 49 40z m-229 -50 c48 -32 154 -98 236 -148 81 -49 148
-94 148 -100 -1 -5 -8 -11 -16 -13 -10 -2 -14 2 -11 10 6 17 -129 94 -159 90
-33 -4 -296 171 -296 198 0 11 3 20 6 20 3 0 45 -26 92 -57z m610 15 c20 -20
14 -40 -34 -111 -35 -53 -50 -68 -66 -65 -12 2 -24 10 -26 18 -5 13 -3 13 13
0 16 -13 20 -12 41 13 33 38 30 54 -8 48 -13 -2 -10 6 23 59 33 53 38 57 57
38z m655 -37 c7 -7 -83 -191 -94 -191 -4 0 -10 11 -13 25 -4 14 -11 25 -17 25
-6 0 -36 -24 -67 -54 l-57 -54 -37 26 c-21 13 -38 31 -38 39 0 18 85 109 122
131 16 9 26 22 23 29 -19 48 -24 45 76 38 52 -4 97 -10 102 -14z m-805 -8 c-2
-13 -13 -18 -38 -19 -56 -2 -79 -13 -105 -52 -30 -45 -33 -37 -4 13 16 27 31
38 65 46 24 6 44 15 44 20 0 5 9 9 21 9 14 0 19 -5 17 -17z m-376 -121 c10 -8
15 -18 12 -23 -3 -5 -42 14 -87 42 -95 60 -112 73 -103 87 6 10 132 -65 178
-106z m192 92 c9 -3 13 -10 10 -16 -3 -5 -12 -4 -20 3 -12 10 -18 8 -29 -7 -8
-10 -15 -14 -15 -8 0 11 20 34 31 34 4 0 14 -3 23 -6z m465 -65 c62 -62 69
-73 58 -90 -6 -10 -15 -19 -20 -19 -4 0 -42 23 -84 52 l-75 51 -18 -24 c-23
-29 -20 -34 28 -50 47 -15 122 -58 122 -70 0 -5 -17 1 -37 14 -21 13 -60 32
-86 42 -26 10 -50 22 -53 26 -7 12 69 139 83 139 7 0 44 -32 82 -71z m-689
-77 c113 -72 210 -135 217 -141 7 -6 17 -11 22 -11 14 0 24 -36 16 -60 -3 -11
-17 -23 -30 -26 -19 -5 -65 20 -220 116 -256 161 -275 174 -275 204 0 25 36
60 55 52 5 -2 102 -63 215 -134z m348 101 c2 -7 -5 -16 -15 -20 -10 -4 -26
-16 -37 -28 -18 -20 -18 -20 -2 7 9 15 16 35 16 43 0 19 31 17 38 -2z m500
-104 c3 -16 -76 -144 -84 -136 -3 3 2 16 11 30 25 38 -5 41 -33 3 -21 -29 -22
-32 -5 -43 16 -12 16 -13 0 -13 -34 0 -28 30 23 105 35 52 57 75 68 73 9 -2
18 -10 20 -19z m-988 -72 c59 -39 56 -37 41 -46 -9 -6 5 -20 49 -47 34 -21 58
-40 52 -42 -23 -7 -217 129 -247 174 -8 13 -15 26 -15 29 0 7 46 -19 120 -68z
m1149 -73 c344 -219 504 -330 515 -361 8 -20 -2 -53 -15 -53 -6 0 -9 8 -7 18
4 19 -44 72 -66 72 -7 0 -26 10 -42 23 -16 12 -30 21 -31 20 -9 -8 -23 -1 -23
12 0 8 -4 15 -9 15 -5 0 -16 3 -25 6 -9 3 -16 2 -16 -4 0 -14 108 -93 139
-101 31 -9 41 -45 15 -55 -19 -7 -44 10 -44 29 0 17 -119 105 -142 105 -10 0
-22 9 -26 20 -4 10 -88 78 -187 150 -99 73 -184 135 -188 140 -9 8 0 50 10 50
3 0 67 -39 142 -86z m-11 -100 c94 -70 158 -124 160 -136 4 -23 110 -108 155
-124 39 -14 44 -47 9 -52 -17 -3 -25 2 -29 17 -3 11 -36 44 -74 71 -40 31 -69
60 -71 72 -2 15 -58 63 -166 145 -90 68 -158 123 -152 123 6 0 82 -52 168
-116z m-865 -11 c-7 -2 -19 -2 -25 0 -7 3 -2 5 12 5 14 0 19 -2 13 -5z m1057
-238 c5 0 94 -70 179 -142 14 -12 24 -24 21 -27 -3 -3 -35 17 -70 44 -69 52
-175 147 -150 133 8 -4 17 -8 20 -8z m430 -141 c0 -20 -5 -44 -11 -56 -14 -26
-78 -53 -92 -39 -8 8 -4 11 14 11 14 0 34 9 43 19 17 19 17 20 -14 36 -31 16
-33 16 -56 -6 -36 -33 -29 -18 23 57 l47 67 23 -27 c15 -17 23 -40 23 -62z"/>
<path d="M3166 2455 c-12 -33 -4 -44 79 -104 89 -64 105 -70 124 -47 19 23 2
43 -86 101 -102 68 -109 71 -117 50z"/>
<path d="M2956 2198 c-18 -26 -13 -38 18 -38 31 0 36 7 22 35 -14 31 -21 31
-40 3z"/>
<path d="M2912 2194 c-5 -10 -24 -16 -50 -17 -31 -2 -38 -5 -30 -14 6 -7 25
-14 42 -14 26 -2 27 -2 7 -6 -42 -8 -72 -33 -62 -52 11 -19 121 -44 135 -31 6
6 14 3 21 -7 6 -9 18 -14 25 -11 10 3 8 10 -9 27 -20 20 -31 23 -78 19 -53 -5
-75 4 -55 24 6 6 12 6 16 -1 4 -6 28 -11 53 -11 39 0 44 2 33 15 -7 8 -21 15
-31 15 -23 0 -27 45 -4 54 8 3 15 10 15 16 0 16 -18 12 -28 -6z"/>
<path d="M3011 2191 c17 -27 44 -42 37 -21 -2 7 -15 20 -29 29 l-24 16 16 -24z"/>
<path d="M2761 2184 c0 -11 3 -14 6 -6 3 7 2 16 -1 19 -3 4 -6 -2 -5 -13z"/>
<path d="M2800 2173 c0 -7 -8 -13 -17 -14 -13 0 -11 -3 6 -10 29 -12 36 -6 22
18 -6 10 -11 12 -11 6z"/>
<path d="M2950 2140 c0 -12 35 -31 44 -23 15 15 4 33 -19 33 -14 0 -25 -4 -25
-10z"/>
<path d="M3016 2134 c-22 -21 -20 -32 7 -37 l22 -4 -22 -2 c-28 -1 -30 -17 -3
-33 11 -7 20 -18 20 -24 0 -15 -77 -11 -113 6 -35 17 -39 12 -25 -36 10 -31
13 -35 16 -16 4 26 10 27 34 5 16 -14 22 -15 36 -5 9 7 29 17 44 23 30 12 45
43 31 62 -5 7 -15 26 -21 42 l-13 30 22 -25 c15 -18 19 -20 15 -7 -3 10 -6 23
-6 28 0 14 -27 10 -44 -7z"/>
<path d="M3130 2110 c0 -5 5 -10 10 -10 6 0 10 5 10 10 0 6 -4 10 -10 10 -5 0
-10 -4 -10 -10z"/>
<path d="M3040 1929 c0 -5 5 -7 10 -4 6 3 10 8 10 11 0 2 -4 4 -10 4 -5 0 -10
-5 -10 -11z"/>
<path d="M2677 1688 c-15 -23 -13 -24 82 -86 102 -67 134 -74 139 -32 2 22 -9
32 -96 83 -55 31 -102 57 -104 57 -3 0 -12 -10 -21 -22z"/>
<path d="M2980 1860 c0 -5 5 -10 11 -10 5 0 7 5 4 10 -3 6 -8 10 -11 10 -2 0
-4 -4 -4 -10z"/>
<path d="M3710 1536 c0 -2 7 -9 15 -16 9 -7 15 -8 15 -2 0 5 -7 12 -15 16 -8
3 -15 4 -15 2z"/>
<path d="M3820 1451 c47 -40 90 -65 90 -52 0 11 -51 46 -100 70 -19 9 -17 5
10 -18z"/>
<path d="M3975 1220 c3 -5 8 -10 11 -10 2 0 4 5 4 10 0 6 -5 10 -11 10 -5 0
-7 -4 -4 -10z"/>
<path d="M2712 2639 c-127 -60 -360 -129 -613 -183 l-77 -17 -6 -37 c-3 -20
-6 -100 -6 -177 l0 -141 -137 -42 c-147 -45 -173 -62 -173 -113 0 -15 -7 -32
-15 -36 -33 -19 -35 -66 -3 -144 51 -129 410 -983 424 -1011 16 -31 61 -58 96
-58 13 0 91 19 174 43 l150 43 69 -59 c94 -79 201 -149 313 -204 l93 -45 105
52 c277 138 518 378 645 643 l23 47 -20 21 -21 21 -52 -95 c-141 -254 -355
-461 -603 -583 l-77 -38 -73 34 c-81 40 -209 122 -282 183 l-49 41 28 8 c16 4
32 5 37 2 4 -3 8 -1 8 4 0 21 41 20 68 -2 38 -31 126 -87 200 -127 l62 -34 63
34 c123 67 204 127 303 226 109 108 177 202 244 334 l42 84 -60 60 -60 60 -56
-60 c-31 -33 -77 -75 -104 -93 l-48 -34 33 -62 33 -61 -40 -7 c-22 -3 -40 -9
-40 -12 0 -2 9 -22 20 -44 43 -85 38 -88 -265 -174 -192 -54 -265 -71 -278
-64 -10 5 -17 11 -15 13 3 3 404 120 496 144 49 14 51 23 17 91 -14 27 -25 52
-25 54 0 3 16 8 35 12 19 3 35 10 35 15 0 6 -11 32 -25 58 l-24 49 53 35 c51
34 166 143 166 157 0 4 -12 17 -27 31 -15 13 -21 16 -14 6 13 -16 7 -25 -58
-89 -40 -38 -75 -67 -79 -63 -4 3 17 27 45 51 33 29 50 50 46 60 -4 10 -22 -1
-67 -43 -34 -32 -84 -69 -111 -83 -28 -14 -58 -31 -68 -39 -13 -11 -21 -11
-28 -4 -14 14 -3 33 18 33 19 0 113 50 113 61 0 4 -10 5 -22 2 -17 -4 -9 8 29
41 70 63 100 105 83 116 -9 6 -32 -10 -71 -50 -92 -93 -89 -94 -140 10 -25 50
-44 90 -43 90 9 0 76 -80 85 -102 6 -16 14 -28 18 -28 4 0 28 22 55 49 l48 48
-13 44 c-15 51 -17 53 -91 80 -32 12 -63 28 -69 35 -20 24 -58 17 -65 -11 -3
-14 -17 -34 -31 -45 l-25 -19 66 -124 c36 -68 66 -127 66 -130 0 -3 -25 -15
-55 -26 -106 -40 -243 -22 -319 41 -42 34 -135 82 -144 73 -3 -2 11 -31 30
-62 43 -70 133 -142 215 -173 100 -39 244 -37 344 4 11 5 19 -2 28 -20 6 -15
8 -30 4 -34 -4 -4 -98 -33 -208 -64 -238 -69 -270 -82 -338 -139 -29 -25 -70
-54 -92 -65 -36 -18 -200 -72 -218 -72 -4 0 -27 42 -51 94 -24 52 -133 279
-242 505 -108 226 -195 414 -192 416 3 3 52 19 109 36 116 34 146 50 158 82 6
16 26 28 67 41 33 9 103 31 156 48 l98 30 100 163 c97 158 120 214 83 202 -10
-3 -65 -22 -123 -42 -58 -20 -168 -52 -244 -70 -77 -19 -142 -37 -145 -41 -3
-3 -6 -64 -6 -135 0 -71 -1 -129 -2 -129 -1 0 -23 10 -48 22 l-45 22 0 142 c0
151 7 174 50 174 56 0 410 102 562 162 70 27 81 36 98 70 22 46 16 46 -68 7z
m-615 -622 c29 -15 40 -26 34 -35 -4 -7 -65 -30 -135 -51 -71 -22 -133 -44
-139 -50 -7 -7 9 -51 55 -147 63 -135 64 -138 46 -156 -16 -16 -17 -22 -6 -35
7 -9 11 -17 9 -17 -9 -2 21 -76 31 -76 6 0 9 -3 6 -6 -4 -3 5 -31 19 -62 25
-57 26 -122 1 -122 -6 0 -8 13 -4 35 10 52 -36 135 -76 135 -24 0 -23 18 1 22
18 3 9 29 -84 242 -57 132 -101 244 -99 251 5 11 251 92 284 93 8 1 34 -9 57
-21z m-328 -254 c16 -40 27 -73 23 -73 -4 0 -1 -4 6 -9 7 -4 14 -18 15 -29 1
-12 5 -22 10 -22 4 0 5 -4 2 -10 -3 -5 -1 -10 5 -10 6 0 9 -4 5 -9 -3 -5 -1
-12 5 -16 6 -4 8 -11 5 -16 -4 -5 -1 -9 5 -9 6 0 9 -4 6 -8 -3 -5 5 -35 18
-67 13 -32 26 -51 29 -44 2 8 3 5 1 -5 -2 -10 4 -32 12 -47 16 -32 20 -86 4
-58 -30 52 -210 496 -205 508 8 21 19 6 54 -76z m211 -218 c14 -19 14 -19 -2
-6 -10 7 -18 18 -18 24 0 6 1 8 3 6 1 -2 9 -13 17 -24z m10 -37 c0 -6 -6 -5
-15 2 -8 7 -15 14 -15 16 0 2 7 1 15 -2 8 -4 15 -11 15 -16z m27 -30 c14 -19
24 -48 15 -48 -4 0 -15 14 -24 30 -17 29 -10 42 9 18z m-43 -114 c8 -21 8 -24
-3 -24 -5 0 -11 9 -14 20 -6 24 8 27 17 4z m1569 -40 c-4 -11 -8 -12 -20 -3
-11 10 -11 14 -1 20 17 10 28 2 21 -17z m-1453 1 c0 -12 -19 -12 -23 0 -4 9
-1 12 9 8 7 -3 14 -7 14 -8z m-10 -45 c0 -5 -7 -10 -16 -10 -8 0 -12 5 -9 10
3 6 10 10 16 10 5 0 9 -4 9 -10z m1020 -3 c0 -8 -3 -17 -7 -20 -9 -9 -34 13
-27 24 8 14 34 11 34 -4z m413 -4 c4 -2 5 -9 1 -14 -3 -5 -1 -16 5 -23 14 -17
-8 -66 -31 -66 -9 0 -19 -6 -22 -12 -5 -10 -7 -10 -12 0 -3 6 -14 12 -25 12
-12 0 -19 7 -19 20 0 11 -4 20 -10 20 -5 0 -10 7 -10 15 0 8 5 15 10 15 6 0
10 9 10 21 0 14 5 19 15 16 8 -4 17 -2 20 3 6 9 47 4 68 -7z m-1433 -43 c0 -5
-4 -10 -10 -10 -5 0 -10 5 -10 10 0 6 5 10 10 10 6 0 10 -4 10 -10z m37 -41
c6 -6 9 -17 6 -25 -8 -21 27 -103 47 -109 39 -12 34 -65 -6 -65 -27 0 -46 28
-34 50 10 19 -22 97 -47 115 -10 7 -14 19 -10 29 7 19 28 21 44 5z m63 -30 c0
-24 77 -186 98 -206 19 -19 21 -27 12 -43 -14 -26 -45 -25 -64 2 -13 19 -14
25 -2 43 12 18 9 31 -25 110 -39 91 -47 121 -29 110 6 -3 10 -11 10 -16z
m1044 -85 c9 -20 15 -39 12 -41 -2 -3 -105 -33 -228 -68 -234 -67 -327 -76
-116 -11 217 66 207 62 178 73 -22 9 -20 11 28 22 29 7 52 17 52 23 0 5 6 6
13 3 6 -4 3 1 -8 11 -16 13 -17 16 -3 11 10 -3 20 -2 23 3 12 20 32 9 49 -26z
m-1034 -134 c0 -5 -4 -10 -10 -10 -5 0 -10 5 -10 10 0 6 5 10 10 10 6 0 10 -4
10 -10z"/>
<path d="M3434 1235 c-4 -9 0 -23 9 -32 21 -21 49 -9 45 19 -4 28 -45 38 -54
13z"/>
<path d="M2085 1170 c4 -6 11 -8 16 -5 14 9 11 15 -7 15 -8 0 -12 -5 -9 -10z"/>
<path d="M2144 1029 c-10 -17 13 -36 27 -22 12 12 4 33 -11 33 -5 0 -12 -5
-16 -11z"/>
<path d="M2236 944 c-8 -21 1 -34 25 -34 22 0 25 16 5 36 -18 18 -22 18 -30
-2z"/>
<path d="M3464 2374 c4 -16 13 -32 19 -36 14 -8 239 -68 258 -68 31 0 39 -24
39 -112 0 -73 -3 -91 -19 -107 -17 -17 -17 -20 -4 -25 38 -15 43 -8 43 67 0
49 5 80 15 93 8 10 14 41 15 69 l0 50 -163 42 c-89 23 -173 45 -186 49 -22 7
-23 5 -17 -22z"/>
<path d="M3578 2043 c7 -3 16 -2 19 1 4 3 -2 6 -13 5 -11 0 -14 -3 -6 -6z"/>
<path d="M4021 2030 c-13 -11 -19 -20 -14 -20 6 0 18 9 28 20 23 25 17 25 -14
0z"/>
<path d="M3683 2033 c9 -2 23 -2 30 0 6 3 -1 5 -18 5 -16 0 -22 -2 -12 -5z"/>
<path d="M3553 1964 c-11 -13 -17 -24 -12 -26 4 -2 5 -8 1 -15 -7 -11 -59 -21
-130 -26 -23 -2 -23 -2 5 -24 30 -25 43 -29 43 -14 0 13 43 10 52 -4 5 -6 26
8 54 36 42 42 44 47 29 62 -8 9 -15 19 -15 22 3 14 -6 10 -27 -11z m17 -14 c0
-5 -5 -10 -11 -10 -5 0 -7 5 -4 10 3 6 8 10 11 10 2 0 4 -4 4 -10z"/>
<path d="M4227 1945 c-8 -18 11 -31 25 -17 11 11 3 32 -12 32 -4 0 -10 -7 -13
-15z"/>
<path d="M4176 1933 c-6 -14 -5 -15 5 -6 7 7 10 15 7 18 -3 3 -9 -2 -12 -12z"/>
<path d="M3486 1918 c3 -5 10 -6 15 -3 13 9 11 12 -6 12 -8 0 -12 -4 -9 -9z"/>
<path d="M3930 1870 c0 -6 62 -10 165 -10 103 0 165 4 165 10 0 6 -62 10 -165
10 -103 0 -165 -4 -165 -10z"/>
<path d="M2126 1831 c-3 -5 13 -50 37 -100 30 -65 46 -88 55 -83 9 7 2 30 -29
100 -40 88 -51 103 -63 83z"/>
<path d="M3930 1820 c0 -6 62 -10 165 -10 103 0 165 4 165 10 0 6 -62 10 -165
10 -103 0 -165 -4 -165 -10z"/>
<path d="M2246 1812 c-3 -5 9 -39 27 -75 23 -49 36 -64 45 -58 10 6 6 22 -19
74 -32 65 -42 76 -53 59z"/>
<path d="M3930 1765 c0 -13 25 -15 165 -15 140 0 165 2 165 15 0 13 -25 15
-165 15 -140 0 -165 -2 -165 -15z"/>
<path d="M2227 1734 c-3 -4 1 -21 10 -38 20 -39 20 -39 32 -32 7 5 5 19 -6 41
-17 35 -24 41 -36 29z"/>
<path d="M2134 1712 c-9 -5 -8 -17 3 -44 15 -38 27 -46 38 -28 9 15 -28 80
-41 72z"/>
<path d="M3930 1710 c0 -6 43 -10 110 -10 67 0 110 4 110 10 0 6 -43 10 -110
10 -67 0 -110 -4 -110 -10z"/>
<path d="M3715 1680 c-3 -5 -1 -10 4 -10 6 0 11 5 11 10 0 6 -2 10 -4 10 -3 0
-8 -4 -11 -10z"/>
<path d="M4162 1647 c-6 -6 -13 -24 -17 -39 -8 -33 23 -68 60 -68 30 0 65 32
65 60 0 26 -20 25 -53 0 -16 -13 -28 -16 -32 -10 -3 5 1 10 9 10 11 0 16 9 16
30 0 23 -5 30 -19 30 -10 0 -23 -6 -29 -13z"/>
<path d="M2105 1630 c-3 -5 1 -10 9 -10 9 0 16 5 16 10 0 6 -4 10 -9 10 -6 0
-13 -4 -16 -10z"/>
<path d="M4070 1590 c0 -11 7 -20 15 -20 8 0 15 9 15 20 0 11 -7 20 -15 20 -8
0 -15 -9 -15 -20z"/>
<path d="M2337 1559 c7 -7 15 -10 18 -7 3 3 -2 9 -12 12 -14 6 -15 5 -6 -5z"/>
<path d="M2230 1536 c0 -2 7 -7 16 -10 8 -3 12 -2 9 4 -6 10 -25 14 -25 6z"/>
<path d="M2200 1526 c0 -2 7 -7 16 -10 8 -3 12 -2 9 4 -6 10 -25 14 -25 6z"/>
<path d="M2305 1492 c-6 -7 -10 -7 -49 -10 -14 -2 -17 -5 -10 -12 8 -8 20 -7
40 1 16 7 35 11 42 10 16 -3 15 6 -2 12 -8 3 -17 3 -21 -1z"/>
<path d="M2200 1460 c-20 -12 -9 -21 18 -13 12 3 19 9 16 14 -7 11 -15 11 -34
-1z"/>
<path d="M2363 1453 c-13 -2 -23 -8 -23 -13 0 -5 -8 -7 -17 -4 -14 5 -15 4 -5
-4 17 -11 95 6 86 19 -3 5 -8 8 -12 8 -4 -1 -17 -4 -29 -6z"/>
<path d="M2524 1432 c11 -18 -6 -42 -30 -42 -18 0 -29 -9 -40 -34 -13 -26 -21
-32 -38 -29 -16 4 -18 2 -7 -5 11 -8 8 -13 -17 -26 -16 -8 -42 -36 -56 -62
-30 -54 -30 -54 -13 -54 7 0 24 23 38 52 19 41 31 54 55 61 21 6 37 20 47 43
16 33 40 44 52 24 11 -18 20 -11 21 18 1 15 3 33 5 41 2 7 -2 16 -10 19 -8 2
-11 0 -7 -6z"/>
<path d="M2257 1409 c7 -7 15 -10 18 -7 3 3 -2 9 -12 12 -14 6 -15 5 -6 -5z"/>
<path d="M2227 1399 c7 -7 15 -10 18 -7 3 3 -2 9 -12 12 -14 6 -15 5 -6 -5z"/>
<path d="M3299 1393 c-13 -16 -12 -17 4 -4 16 13 21 21 13 21 -2 0 -10 -8 -17
-17z"/>
<path d="M2330 1370 c0 -5 5 -10 10 -10 6 0 10 5 10 10 0 6 -4 10 -10 10 -5 0
-10 -4 -10 -10z"/>
<path d="M2245 1340 c4 -6 11 -8 16 -5 14 9 11 15 -7 15 -8 0 -12 -5 -9 -10z"/>
<path d="M2296 1313 c-2 -10 -7 -28 -11 -40 -4 -14 -2 -23 4 -23 6 0 11 11 11
24 0 14 5 28 10 31 13 8 13 25 1 25 -5 0 -12 -8 -15 -17z"/>
<path d="M2550 1320 c0 -5 5 -10 10 -10 6 0 10 5 10 10 0 6 -4 10 -10 10 -5 0
-10 -4 -10 -10z"/>
<path d="M2507 1258 c18 -49 30 -65 39 -55 11 11 -26 97 -42 97 -12 0 -11 -7
3 -42z"/>
<path d="M2620 1269 c0 -5 5 -7 10 -4 6 3 10 8 10 11 0 2 -4 4 -10 4 -5 0 -10
-5 -10 -11z"/>
<path d="M2574 1253 c-7 -2 -10 -13 -7 -23 6 -22 18 -26 28 -10 8 14 -7 38
-21 33z"/>
<path d="M2655 1240 c-3 -5 3 -10 14 -10 11 0 26 -7 35 -15 8 -8 22 -15 30
-15 10 0 16 -10 17 -27 1 -17 3 -21 6 -10 2 9 9 17 15 17 6 0 20 -8 31 -17 20
-18 20 -18 2 10 -10 15 -24 26 -31 23 -7 -3 -14 -2 -16 3 -3 6 -83 51 -93 51
-2 0 -7 -4 -10 -10z"/>
<path d="M2476 1221 c-4 -5 -3 -16 0 -24 8 -22 33 -10 27 14 -6 20 -18 25 -27
10z"/>
<path d="M2434 1213 c-7 -2 -10 -13 -7 -23 5 -20 18 -26 26 -12 8 12 -7 39
-19 35z"/>
<path d="M2377 1179 c3 -11 12 -19 19 -19 21 0 17 27 -5 33 -14 3 -17 0 -14
-14z"/>
<path d="M2950 1180 c0 -5 5 -10 11 -10 5 0 7 5 4 10 -3 6 -8 10 -11 10 -2 0
-4 -4 -4 -10z"/>
<path d="M2908 1173 c-10 -2 -18 -9 -18 -15 0 -5 7 -7 16 -4 9 3 20 6 25 6 5
0 9 5 9 10 0 10 -3 11 -32 3z"/>
<path d="M2600 1149 c0 -5 -6 -9 -13 -9 -19 0 -15 -44 7 -65 23 -24 56 -27 75
-7 35 34 8 90 -43 90 -14 0 -26 -4 -26 -9z m53 -33 c3 -8 -1 -20 -9 -27 -12
-10 -18 -9 -31 3 -8 9 -12 21 -9 27 10 16 43 14 49 -3z"/>
<path d="M2860 1150 c0 -5 5 -10 10 -10 6 0 10 5 10 10 0 6 -4 10 -10 10 -5 0
-10 -4 -10 -10z"/>
<path d="M2830 1140 c0 -5 5 -10 10 -10 6 0 10 5 10 10 0 6 -4 10 -10 10 -5 0
-10 -4 -10 -10z"/>
<path d="M2436 1114 c-4 -9 -13 -14 -21 -10 -15 5 -19 -5 -15 -33 1 -8 -4 -18
-12 -23 -10 -7 -10 -11 3 -21 9 -7 19 -21 21 -32 3 -14 11 -19 28 -17 13 1 27
-3 32 -10 6 -10 11 -9 22 5 7 9 21 17 31 17 13 0 16 5 11 25 -4 14 -2 25 4 25
5 0 10 7 10 15 0 8 -5 15 -10 15 -6 0 -15 12 -20 26 -8 19 -15 24 -30 19 -11
-4 -20 -2 -20 4 0 17 -27 13 -34 -5z m55 -50 c9 -11 10 -20 3 -32 -15 -23 -29
-25 -48 -7 -12 12 -13 21 -6 36 13 23 33 25 51 3z"/>
<path d="M3166 693 c-3 -8 -10 -12 -15 -9 -5 4 -17 -2 -27 -11 -10 -10 -19
-17 -21 -16 -2 2 -25 -7 -53 -19 -45 -20 -50 -25 -50 -55 l0 -32 44 18 c57 25
189 106 193 118 2 6 -8 8 -23 5 -16 -3 -25 -1 -21 5 3 5 0 10 -8 10 -8 0 -17
-7 -19 -14z"/>
</g>
</svg>
